# xmcd
#
# Track frame offsets:
#	150
#	9182
#	23998
#	29693
#	35154
#	50334
#	63706
#	82705
#	93078
#	111997
#	120266
#	139001
#	149271
#	157816
#
# Disc length: 2333 seconds
#
# Revision: 1
# Processed by: cddbd v1.5.2PL0 Copyright (c) Steve Scherf et al.
# Submitted via: audiograbber 1.83.01
#
DISCID=ac091b0e
DTITLE=James Brown - Live
DYEAR=1900
DGENRE=Rhythmic Soul
TTITLE0=Give It Up Turn It Loose
TTITLE1=Get On The Good Foot
TTITLE2=Cold Sweat
TTITLE3=Hot Pants
TTITLE4=I Got The Feelling
TTITLE5=I Got You (I Feel Good)
TTITLE6=It's a Man's Man's Man's World
TTITLE7=Papa's Got A Brand New Bag
TTITLE8=Super Bad
TTITLE9=Try Me
TTITLE10=Sex Machine
TTITLE11=Get Up Offa That Thang
TTITLE12=I Can't Stand Myself (When You Touch Me)
TTITLE13=Please, Please, Please
EXTD=
EXTT0=
EXTT1=
EXTT2=
EXTT3=
EXTT4=
EXTT5=
EXTT6=
EXTT7=
EXTT8=
EXTT9=
EXTT10=
EXTT11=
EXTT12=
EXTT13=
PLAYORDER=
